<svg xmlns="http://www.w3.org/2000/svg" width="620.73" height="620.74" viewBox="0 0 620.73 620.74"><defs><style>.cls-1{fill:#373535;}.cls-2{fill:none;stroke:#fff;stroke-width:0.54px;}.cls-3{fill:#e30000;}.cls-4{fill:#241f21;}.cls-5{fill:#fff;}</style></defs><title>Asset 9</title><g id="Layer_2" data-name="Layer 2"><g id="Layer_1-2" data-name="Layer 1"><path class="cls-1" d="M67.15.27S.27.27.27,67.15V553.58s0,66.89,66.88,66.89H553.59s66.88,0,66.88-66.89V67.15S620.47.27,553.59.27Z"/><path class="cls-2" d="M67.15.27S.27.27.27,67.15V553.58s0,66.89,66.88,66.89H553.59s66.88,0,66.88-66.89V67.15S620.47.27,553.59.27Z"/><path class="cls-3" d="M443,233.62a27.67,27.67,0,0,0,1.15-7.82c-.31-5.87-4.77-13.29-8.22-20.63-2.65-9.32-4.5-15.58-7.88-20.54a35.66,35.66,0,0,0-10-9.61c2.85-19.25.52-31.55-2-42.66-1.36-6.11-3.85-18.05-3.71-30.08a79.27,79.27,0,0,0-13.55-.47c-18,1-32.33,15.57-41.3,25.19-2.42,2.6-8.42,6.24-12.19,10.45-8.22-2.87-15.4-4.62-23.54-4C310,93.73,292.06,72.73,251.16,63c-13.28,46.94-28,69.95-30.47,73.84-13.36,21.28-17.22,32-21.36,59.09a96.83,96.83,0,0,0-24.51,27.24c-4.89,8-9.4,16.74-14.19,26-6.87,13.34-15.39,31.32-25.72,43.05,2.19,19.27.73,37.44-1.62,52.46-1.52,9.74-4.25,25-4.86,38.58a200.89,200.89,0,0,0,45,79.11c18.44,19.72,43.6,39.86,80.31,64.53C266,535.13,277.15,542,277.15,542a177.59,177.59,0,0,1-1.83-25.6,413.91,413.91,0,0,0,39.14,23.4,223.63,223.63,0,0,0,28.08-15,132,132,0,0,1-1.8,19.12,281.92,281.92,0,0,0,26.08-20.61c21.4-18.74,40.27-50.78,49.77-80.17,5-15.48,4.58-27.44.65-44.94,1.95-4.06,4.64-10.52,4.48-18.33,0-.33,0-.67,0-1,14.55-5.38,23.5-10.57,35.33-24.51a18.37,18.37,0,0,0,10.57-4c9-7.53,18.25-20.57,22.49-31.72A59.35,59.35,0,0,0,493.53,302c6.26-7.59,12.09-22.44,12.64-38.24-13.1-14.66-43.13-18.9-63.15-30.1"/><path class="cls-4" d="M315.34,520c12.79-5.35,29.9-14.39,44.09-29.16a108.33,108.33,0,0,1-1.06,18.31c17.93-14.28,36.45-42.19,45.45-70.06,4.33-13.41,5-23.39.36-41.94-.32-1.32,5.25-8.38,5.07-17a27.39,27.39,0,0,0-2.26-9.34c21.29-7.21,29.14-10,43.75-28.45.6-.76,6.6.36,8.85-1.52,7.55-6.32,15.39-17.55,18.83-26.59,2-5.15,2.68-11,2.88-17.22,5.89-6.38,11.37-13.6,11.9-28.52-4.8-5.56-15.56-9.38-34-16.05-10.47-3.8-26.56-10.08-31.61-13.18,2.65-4,4.59-9.79,4.43-12.89-.23-4.27-4.66-11.3-7.46-17-2.45-8.74-4.13-14.76-6.53-18.3-3.3-4.89-7-6.79-13.13-10.41,7.05-34.3-2.69-42.57-3.89-66.92-17.42-1.34-35.21,24.21-39.7,27a84.33,84.33,0,0,0-12.79,10.71c-16.78-6.65-24.26-7.09-36.16-4.51-8-39.45-24.66-61.63-52.83-69.4-13.59,41.27-25.06,62-27.71,65.94-13,19.33-16.12,28.86-20.65,59.54a83.46,83.46,0,0,0-25.42,26.65c-11.67,19-22.11,44.75-37.26,65.88,3.9,34.23-4.48,50.4-5.94,83.59,15.72,53.41,52.61,87.6,118.62,132.1a164,164,0,0,1-1.1-27.81c14.84,14.8,35.57,26.48,55.23,36.52"/><path class="cls-5" d="M366.62,160.65c5.92,2.91,13.53,7.09,20.24,11-1.62-4.76-2.6-9.53-.87-15.31a8.14,8.14,0,0,0-6.63,3.09c-1.57-16.34,4-12.91,9.81-19.23.38,11.86,4.78,12.6,7,31.57,4.34-20.81-2.4-30.24-3.46-43.49-9.74.33-22,16.64-26.12,32.33m-61.71,10.09c-5-45.91-24.28-74.68-38.71-76-6.61,19.07-26.81,56.09-23.65,98.45a39.32,39.32,0,0,1-9.37-4.13c.24,8.7-1.21,17.13-3.48,22-18.67,12.06-29.16,31.25-38.42,52.72,17.79-20.88,34.17-37.5,52.33-41.53,2.39-2.79,5.24-6.85,5.29-12.23a14.09,14.09,0,0,0,13,.45c-14.21-39.92-3.31-76.76,8.58-91.81,5.64,11.39,17.61,13.59,20.29,29.78-4-3.62-10.73-4.65-14.07-3.38,3.59,8.24,4.17,13.69-3.2,28a20.61,20.61,0,0,0,6.22,10.39c-4.28-.08-9,3.2-10.81,7.3a12.76,12.76,0,0,1,11,6.08c13.34-9.2,17-21.3,17.65-26.36a9.11,9.11,0,0,0,7.36.23M480.67,273.58c-3.12-4.51-18-1.09-22.76,3.11a20,20,0,0,1,6.08,4.69c5-2.57,9.21-2.75,10.3-1.39.9,1.11.4,5.43-.9,10,3.39-3.17,8-10.68,7.28-16.41m-14.45,38.77c-1.63,4.07-6.31,11.26-10.41,12.43a17.68,17.68,0,0,0-4.86-5.46c-5.74.5-32.78,15.24-62.41,7.44-18.08-4.76-32.77-21.65-53-6.32,23.26.93,33.47,11.91,52.59,16.39,18.28,4.29,26.59,1.67,38.78,1.18,4.75-.19,7.41.33,8.72,1,.73.38.82,1,.28,1.82-3.6,5.3-29.19,21.6-50.86,16.86-15.51-10.91-30.74-14.84-42.5-14.41-9.42.34-17.07,3.71-22,7.75,13-.21,22.22,4,30.06,13-6.18.67-9.23,3.86-12,8.34,27.47,20.15,17,54.08,6,73.6,12.32-2.55,29.92-17.23,36.6-27a39.17,39.17,0,0,1,.06,13.74c5.2-5.58,9.28-10,12-17.79,2.76,8.54-.55,27.43-17.8,48.75a44.46,44.46,0,0,0,.22-13.47c-11.49,15-32.42,34.82-56.15,42.73-18.64-7.63-46.49-24.7-74.34-48.38a108,108,0,0,0-.69,18.78c-50.42-40-56.9-54.85-67-85.81,17.77,24,36.19,35.83,60.43,51.42a60.83,60.83,0,0,1,1.17-13.85c18.77,14.2,42,25.39,62.93,30.52-29.64-22.52-52.51-44.4-66.2-67.71a67.23,67.23,0,0,0-2.78,14.71c-6.94-6.63-16.45-18-19.91-30.53-2.13,2.61-3.27,5.19-4.63,9.79-11.26-19.57-8-35.94,1.42-49.17,2.55,16.56,8.46,24.42,17.76,34.09.24-3.79.8-8.13,2.68-11.89,11.23,11.25,25.39,19.15,36.69,21.5a45.64,45.64,0,0,0,27.3-2.34c-22.55-8.9-40.79-20.84-56.52-56.45,6.9,4.38,18.54,6.9,27.08,7.32-11.13-9.37-22.58-19.3-27.51-31.8,0,0,9.59-1.61,14-5.32a21.31,21.31,0,0,1-4.7-6.81c22.4-8,27.57-19.06,34.45-23.6,3.29-2.16,18.56-2,23.81,2.11,5.1,4,10.84,16.17,16.62,19.24s23.76,1.6,30.47-10.11c-4.29,1.32-13.85.85-17.08-.83-8.25-4.31-13.16-14.42-28.61-20a22.7,22.7,0,0,1,7.79-6.73,27.38,27.38,0,0,1-11.11-7c16.24-10.47,15.95-22.8,33.19-20.77a18.35,18.35,0,0,0-7-11.33c7.84-7.69,7.73-20.53,21.61-20.36,12.6.15,26.62,17.06,37.37,41.29-1.09-16-2.54-22.95-7.09-32.76,10.83,8.66,15.81,15.14,20.28,34,.94-13.39,1.16-18.1,3.17-20.53a9.37,9.37,0,0,1,5.81,6c1.15,2.67,2.56,7.74,4.67,14.83,4.17,6.55,5.75,10.41,5.75,12a9.72,9.72,0,0,1-2.07,5.76,10.73,10.73,0,0,0-3-3.91c-2.27,2.06-2.51,7-6.71,5.63-3.08-1-4.07-2.4-4.07-2.4.74,6.31,2.72,8.55,6.43,11.08,12.08,8.24,28.14,13.34,47.42,20.8-6.34.1-13.11,1.77-16.3,4.93-3.75,3.71-7.69,12.65-6.38,15.93,1.53,3.82,10,6.22,14,15.76,1.2,2.8,5,5.92,8.5,7.46a34.61,34.61,0,0,0,9.39-3.33c.3,2.48-.9,5.76-1.88,8.21"/><path class="cls-4" d="M353.76,237.56a14,14,0,0,1-8.28-7.32,13.08,13.08,0,0,1,9.23-3c3.34,1.88,5.55,5,8.91,7.55-2.7,2.73-8.34,3.26-9.86,2.8m34.71,3.25a8.09,8.09,0,0,1-4.22-2.46,8.85,8.85,0,0,0,3.19-6.92c-2.4.95-7.83.71-10.5-.35-6.48-2.57-12.51-16.67-25.3-19.7.84,1.37,1.15,3.34,1.19,5.89-10.12-3.85-21.27,3.78-29.06,10.82,7.62,2,18.46,16.11,24.84,17.42,7.61,1.56,16.27-.74,18.6-2.85,6.55,1.88,13.9,8,18.66,17.24,5.2-8,5.9-15.88,2.6-19.09"/></g></g></svg>